<?xml version="1.0" encoding="UTF-8" standalone="no"?>
<!DOCTYPE svg PUBLIC "-//W3C//DTD SVG 1.1//EN"
 "http://www.w3.org/Graphics/SVG/1.1/DTD/svg11.dtd">
<!-- Generated by graphviz version 2.38.0 (20140413.2041)
 -->
<!-- Title: %323 Pages: 1 -->
<svg width="764pt" height="367pt"
 viewBox="0.00 0.00 764.02 367.01" xmlns="http://www.w3.org/2000/svg" xmlns:xlink="http://www.w3.org/1999/xlink">
<g id="graph0" class="graph" transform="scale(1 1) rotate(0) translate(329.235 187.386)">
<title>%323</title>
<polygon fill="white" stroke="none" points="-329.235,179.621 -329.235,-187.386 434.786,-187.386 434.786,179.621 -329.235,179.621"/>
<!-- %325 -->
<g id="node1" class="node"><title>%325</title>
<polygon fill="#feff00" stroke="black" points="281.138,-183.386 204.84,-183.386 204.84,-147.386 281.138,-147.386 281.138,-183.386"/>
<text text-anchor="middle" x="242.989" y="-162.236" font-family="TimesNewRomanPSMT" font-size="14.00">Immutable</text>
</g>
<!-- %327 -->
<g id="node2" class="node"><title>%327</title>
<polygon fill="#b1c4ff" stroke="black" points="290.646,-90.8086 191.22,-90.8086 191.22,-54.8086 290.646,-54.8086 290.646,-90.8086"/>
<text text-anchor="middle" x="240.933" y="-69.6579" font-family="TimesNewRomanPSMT" font-size="14.00">No side effects</text>
</g>
<!-- %325&#45;&gt;%327 -->
<g id="edge1" class="edge"><title>%327&#45;&gt;%327</title>
<path fill="none" stroke="black" d="M242.583,-147.096C242.293,-134.036 241.897,-116.212 241.566,-101.297"/>
<polygon fill="black" stroke="black" points="245.06,-100.981 241.338,-91.0609 238.061,-101.136 245.06,-100.981"/>
</g>
<!-- %331 -->
<g id="node3" class="node"><title>%331</title>
<polygon fill="#b1c4ff" stroke="black" points="155.192,-41.9218 38.5979,-41.9218 38.5979,-5.92178 155.192,-5.92178 155.192,-41.9218"/>
<text text-anchor="middle" x="96.8951" y="-20.7711" font-family="TimesNewRomanPSMT" font-size="14.00">Less to remember</text>
</g>
<!-- %327&#45;&gt;%331 -->
<g id="edge2" class="edge"><title>%331&#45;&gt;%331</title>
<path fill="none" stroke="black" d="M190.96,-55.8475C180.882,-52.4271 170.167,-48.7903 159.714,-45.2427"/>
<polygon fill="black" stroke="black" points="160.809,-41.9182 150.215,-42.0185 158.559,-48.5468 160.809,-41.9182"/>
</g>
<!-- %335 -->
<g id="node4" class="node"><title>%335</title>
<ellipse fill="#00ff3f" stroke="black" cx="-45.5282" cy="26.4642" rx="48.3943" ry="48.3943"/>
<polyline fill="none" stroke="black" points="-13.6509,-9.68338 -77.4055,-9.68338 "/>
<polyline fill="none" stroke="black" points="-13.6509,62.6117 -77.4055,62.6117 "/>
<text text-anchor="middle" x="-45.5282" y="29.6149" font-family="TimesNewRomanPSMT" font-size="14.00" fill="#000000">Less bugs</text>
</g>
<!-- %331&#45;&gt;%335 -->
<g id="edge3" class="edge"><title>%335&#45;&gt;%335</title>
<path fill="none" stroke="black" d="M45.8793,-5.87361C34.0388,-1.68472 21.3862,2.79146 9.3861,7.03682"/>
<polygon fill="black" stroke="black" points="10.5249,10.3465 -0.0699072,10.3821 8.19019,3.74726 10.5249,10.3465"/>
</g>
<!-- %339 -->
<g id="node5" class="node"><title>%339</title>
<polygon fill="#feff00" stroke="black" points="430.721,-121.291 326.983,-121.291 326.983,-85.2907 430.721,-85.2907 430.721,-121.291"/>
<text text-anchor="middle" x="378.852" y="-100.14" font-family="TimesNewRomanPSMT" font-size="14.00">No hidden state</text>
</g>
<!-- %339&#45;&gt;%327 -->
<g id="edge4" class="edge"><title>%327&#45;&gt;%327</title>
<path fill="none" stroke="black" d="M326.711,-91.7667C318.267,-89.9006 309.466,-87.9553 300.855,-86.0523"/>
<polygon fill="black" stroke="black" points="301.388,-82.5856 290.868,-83.845 299.877,-89.4206 301.388,-82.5856"/>
</g>
<!-- %343 -->
<g id="node6" class="node"><title>%343</title>
<polygon fill="#ff9200" stroke="black" points="72.2752,-117.396 18.2752,-117.396 18.2752,-81.3957 72.2752,-81.3957 72.2752,-117.396"/>
<text text-anchor="middle" x="45.2752" y="-96.245" font-family="TimesNewRomanPSMT" font-size="14.00">7 +/&#45; 2</text>
</g>
<!-- %343&#45;&gt;%331 -->
<g id="edge5" class="edge"><title>%331&#45;&gt;%331</title>
<path fill="none" stroke="black" d="M57.7709,-81.1256C64.0481,-71.9477 71.7722,-60.6543 78.6943,-50.5333"/>
<polygon fill="black" stroke="black" points="81.758,-52.2537 84.5145,-42.0237 75.9801,-48.3019 81.758,-52.2537"/>
</g>
<!-- %347 -->
<g id="node7" class="node"><title>%347</title>
<polygon fill="#b1c4ff" stroke="black" points="-63.4728,110.688 -206.688,110.688 -206.688,146.688 -63.4728,146.688 -63.4728,110.688"/>
<text text-anchor="middle" x="-135.08" y="131.839" font-family="TimesNewRomanPSMT" font-size="14.00">Errors unrepresentable</text>
</g>
<!-- %347&#45;&gt;%335 -->
<g id="edge6" class="edge"><title>%335&#45;&gt;%335</title>
<path fill="none" stroke="black" d="M-119.07,110.412C-109.307,99.2678 -96.3796,84.5112 -84.0893,70.4818"/>
<polygon fill="black" stroke="black" points="-86.5732,68.0057 -77.3511,62.7901 -81.3079,72.6183 -86.5732,68.0057"/>
</g>
<!-- %351 -->
<g id="node8" class="node"><title>%351</title>
<polygon fill="#feff00" stroke="black" points="36.4135,139.621 -27.2626,139.621 -27.2626,175.621 36.4135,175.621 36.4135,139.621"/>
<text text-anchor="middle" x="4.57545" y="160.772" font-family="TimesNewRomanPSMT" font-size="14.00">No nulls</text>
</g>
<!-- %347&#45;&gt;%351 -->
<g id="edge7" class="edge"><title>%351&#45;&gt;%351</title>
<path fill="none" stroke="black" d="M-63.2069,143.578C-54.3723,145.409 -45.5814,147.23 -37.4005,148.925"/>
<polygon fill="black" stroke="black" points="-36.4889,145.539 -27.4069,150.995 -37.909,152.394 -36.4889,145.539"/>
</g>
<!-- %351&#45;&gt;%335 -->
<g id="edge8" class="edge"><title>%335&#45;&gt;%335</title>
<path fill="none" stroke="black" d="M-2.39124,139.384C-8.17403,124.247 -16.7097,101.903 -24.6653,81.0772"/>
<polygon fill="black" stroke="black" points="-27.9687,82.2375 -28.2678,71.6469 -21.4296,79.7395 -27.9687,82.2375"/>
</g>
<!-- %357 -->
<g id="node9" class="node"><title>%357</title>
<polygon fill="#feff00" stroke="black" points="-245.544,55.6631 -321.533,55.6631 -321.533,91.6631 -245.544,91.6631 -245.544,55.6631"/>
<text text-anchor="middle" x="-283.539" y="76.8138" font-family="TimesNewRomanPSMT" font-size="14.00">Rich types</text>
</g>
<!-- %357&#45;&gt;%347 -->
<g id="edge9" class="edge"><title>%347&#45;&gt;%347</title>
<path fill="none" stroke="black" d="M-245.692,87.6906C-229.818,93.5742 -210.995,100.551 -193.419,107.065"/>
<polygon fill="black" stroke="black" points="-191.969,103.87 -183.809,110.627 -194.402,110.433 -191.969,103.87"/>
</g>
<!-- %361 -->
<g id="node10" class="node"><title>%361</title>
<polygon fill="#b1c4ff" stroke="black" points="-129.932,-35.384 -201.114,-35.384 -201.114,0.616047 -129.932,0.616047 -129.932,-35.384"/>
<text text-anchor="middle" x="-165.523" y="-14.2333" font-family="TimesNewRomanPSMT" font-size="14.00">Less code</text>
</g>
<!-- %357&#45;&gt;%361 -->
<g id="edge10" class="edge"><title>%361&#45;&gt;%361</title>
<path fill="none" stroke="black" d="M-259.94,55.4572C-241.93,41.5625 -216.936,22.28 -197.187,7.04457"/>
<polygon fill="black" stroke="black" points="-199.136,4.12759 -189.081,0.790403 -194.86,9.66992 -199.136,4.12759"/>
</g>
<!-- %361&#45;&gt;%335 -->
<g id="edge11" class="edge"><title>%335&#45;&gt;%335</title>
<path fill="none" stroke="black" d="M-129.846,-4.34679C-120.631,-0.979791 -110.496,2.72382 -100.545,6.36019"/>
<polygon fill="black" stroke="black" points="-99.2876,3.09317 -91.0963,9.81282 -101.69,9.66796 -99.2876,3.09317"/>
</g>
<!-- %367 -->
<g id="node11" class="node"><title>%367</title>
<polygon fill="#feff00" stroke="black" points="389.256,-3.06171 335.256,-3.06171 335.256,32.9383 389.256,32.9383 389.256,-3.06171"/>
<text text-anchor="middle" x="362.256" y="18.089" font-family="TimesNewRomanPSMT" font-size="14.00">Pure</text>
</g>
<!-- %367&#45;&gt;%327 -->
<g id="edge12" class="edge"><title>%327&#45;&gt;%327</title>
<path fill="none" stroke="black" d="M337.117,-3.24291C318.898,-16.42 294.078,-34.3712 274.215,-48.7375"/>
<polygon fill="black" stroke="black" points="272.091,-45.9542 266.039,-54.6506 276.193,-51.6262 272.091,-45.9542"/>
</g>
<!-- %371 -->
<g id="node12" class="node"><title>%371</title>
<polygon fill="#feff00" stroke="black" points="-237.364,-50.069 -325.192,-50.069 -325.192,-9.67347 -237.364,-9.67347 -237.364,-50.069"/>
<text text-anchor="middle" x="-281.278" y="-34.7699" font-family="TimesNewRomanPSMT" font-size="14.00">Higher order</text>
<text text-anchor="middle" x="-281.278" y="-18.6712" font-family="TimesNewRomanPSMT" font-size="14.00">Functions</text>
</g>
<!-- %371&#45;&gt;%361 -->
<g id="edge13" class="edge"><title>%361&#45;&gt;%361</title>
<path fill="none" stroke="black" d="M-237.186,-25.1147C-228.737,-24.2033 -219.872,-23.247 -211.37,-22.3298"/>
<polygon fill="black" stroke="black" points="-210.798,-25.7885 -201.231,-21.236 -211.549,-18.8289 -210.798,-25.7885"/>
</g>
<!-- %375 -->
<g id="node13" class="node"><title>%375</title>
<polygon fill="#feff00" stroke="black" points="189.699,69.4204 120.386,69.4204 120.386,109.816 189.699,109.816 189.699,69.4204"/>
<text text-anchor="middle" x="155.043" y="84.7195" font-family="TimesNewRomanPSMT" font-size="14.00">Pattern </text>
<text text-anchor="middle" x="155.043" y="100.818" font-family="TimesNewRomanPSMT" font-size="14.00">Matching</text>
</g>
<!-- %375&#45;&gt;%331 -->
<g id="edge14" class="edge"><title>%331&#45;&gt;%331</title>
<path fill="none" stroke="black" d="M144.647,69.3195C135.228,50.9279 121.274,23.68 110.879,3.38354"/>
<polygon fill="black" stroke="black" points="107.684,4.82238 106.241,-5.67372 113.914,1.63153 107.684,4.82238"/>
</g>
<!-- %381 -->
<g id="node14" class="node"><title>%381</title>
<polygon fill="#feff00" stroke="black" points="-182.299,-126.308 -253.755,-126.308 -253.755,-85.9126 -182.299,-85.9126 -182.299,-126.308"/>
<text text-anchor="middle" x="-218.027" y="-111.009" font-family="TimesNewRomanPSMT" font-size="14.00">Data vs.</text>
<text text-anchor="middle" x="-218.027" y="-94.9103" font-family="TimesNewRomanPSMT" font-size="14.00">Functions</text>
</g>
<!-- %381&#45;&gt;%361 -->
<g id="edge16" class="edge"><title>%361&#45;&gt;%361</title>
<path fill="none" stroke="black" d="M-206.113,-85.9769C-198.837,-73.6804 -189.44,-57.8014 -181.521,-44.4185"/>
<polygon fill="black" stroke="black" points="-178.399,-46.0155 -176.318,-35.627 -184.423,-42.4506 -178.399,-46.0155"/>
</g>
</g>
</svg>
